<?xml version="1.0" encoding="UTF-8"?>
<svg id="Layer_1" data-name="Layer 1" xmlns="http://www.w3.org/2000/svg" xmlns:xlink="http://www.w3.org/1999/xlink" viewBox="0 0 364.63 229.58">
  <defs>
    <style>
      .cls-1 {
        fill: #fff;
        stroke-width: 0px;
      }
    </style>
  </defs>
  <image width="2100" height="2100" transform="translate(109.02) scale(.11)" xlink:href="Untitled-3.png"/>
  <text/>
  <text/>
  <g>
    <path class="cls-1" d="M164.19,59.13c1.21-1.12,2.46-2.21,3.74-3.27-.16.53-.31,1.05-.46,1.58.7.71,1.39,1.43,2.07,2.15.13-.09.28-.19.44-.32-.67-.72-1.35-1.43-2.03-2.14.12-.42.24-.85.37-1.27.08-.01.17-.03.25-.04-.12.4-.24.8-.35,1.2.66.7,1.32,1.39,1.97,2.1.09-.07.18-.13.27-.2.42-.31.82-.61,1.2-.91.55-.43,1.01-.82,1.38-1.16-.68-.81-1.37-1.61-2.07-2.41-.51.06-1.02.13-1.53.21,1.29-1.01,2.6-1.98,3.95-2.92-.21.52-.42,1.04-.61,1.56,1.53,1.85,3.02,3.72,4.48,5.61.47-.03.93-.06,1.4-.08-1.2.83-2.38,1.7-3.52,2.59.17-.47.34-.94.53-1.42-.61-.75-1.23-1.5-1.86-2.25-.39.41-.81.79-1.27,1.16-.44.34-.9.69-1.38,1.04-.04.03-.07.06-.11.08.66.72,1.31,1.44,1.95,2.16.7-.01,1.39-.01,2.07,0-1.27,1.01-2.51,2.05-3.71,3.14-.1,0-.21.02-.31.03,1.13-1.03,2.29-2.02,3.49-2.98-.56,0-1.11.02-1.67.05-.7-.78-1.42-1.57-2.13-2.34.08-.06.15-.12.23-.17.7-.52,1.22-.9,1.52-1.14.5-.39.9-.78,1.2-1.15-.05-.06-.11-.13-.16-.19-.46.43-1.02.9-1.67,1.42-.35.28-.61.48-.77.6-.27.2-.55.4-.82.6-.03.02-.1.07-.19.14.78.83,1.55,1.67,2.32,2.51.48-.08.96-.15,1.43-.22-1.13.92-2.23,1.88-3.3,2.86.12-.48.25-.95.38-1.43-.69-.72-1.39-1.44-2.1-2.16-.41.37-.63.78-.66,1.21-.07.03-.13.06-.2.09.04-.49.29-.97.74-1.43-.06-.06-.12-.12-.18-.18-.56.5-.85,1.03-.88,1.6-.05.02-.1.04-.16.05-.19-.72,0-1.43.58-2.11-.73-.73-1.47-1.46-2.21-2.19-.55.12-1.1.24-1.65.36ZM174,51.77c-.16.38-.31.77-.46,1.15,1.48,1.83,2.92,3.67,4.33,5.53.7.04,1.39.09,2.08.15-1.36.91-2.69,1.87-3.98,2.86-.1,0-.2,0-.3,0,1.21-.94,2.46-1.84,3.73-2.71-.55-.04-1.11-.07-1.67-.1-1.45-1.9-2.93-3.78-4.44-5.64.16-.42.32-.84.49-1.27.08,0,.15.01.23.02Z"/>
    <path class="cls-1" d="M184.76,45.04c-.03.06-.06.13-.09.19-.37.82-.56,1.65-.55,2.49-.12-.06-.2-.1-.26-.13-.62-.3-1.18-.41-1.66-.33-.48.07-1.23.39-2.23.97-.46.27-1.01.6-1.63,1,.6.87,1.2,1.74,1.79,2.62.19-.11.37-.22.56-.34-.52-.78-1.04-1.55-1.56-2.33.44-.3.88-.57,1.3-.81.78-.44,1.4-.71,1.84-.8.44-.1.9-.07,1.37.09-.11,0-.19,0-.24,0-.65.01-1.11.06-1.36.14-.25.07-.71.29-1.36.66-.2.11-.54.32-1.03.63-.06.04-.13.08-.19.12.49.72.97,1.45,1.45,2.18.54-.32,1.09-.63,1.64-.94.17-.56.35-1.12.53-1.68.51.85,1.02,1.69,1.53,2.54-.58-.13-1.16-.24-1.74-.36-.81.45-1.61.91-2.4,1.39.72,1.07,1.43,2.14,2.13,3.22.18-.11.35-.21.53-.32-.63-.99-1.27-1.98-1.92-2.96.63-.37,1.27-.74,1.91-1.09.11,0,.22.02.32.03-.64.35-1.28.72-1.91,1.09.61.94,1.22,1.88,1.82,2.82,1.13-.66,1.92-1.17,2.35-1.55.42-.38.68-.81.78-1.29.05-.26.1-.52.16-.78,0-.03.01-.1.03-.19.4.36.78.62,1.15.77.37.15.91.28,1.61.39-3.26,1.55-6.39,3.33-9.37,5.29.25-.48.51-.97.77-1.45-.58-.84-1.16-1.68-1.75-2.52-.45.34-.81.71-1.07,1.12-.07-.01-.13-.03-.2-.04.22-.39.61-.8,1.17-1.23-.06-.09-.12-.18-.19-.26-.1.05-.17.09-.21.12-.58.37-1,.86-1.26,1.45-.18-.76.19-1.45,1.13-2.05-.57-.8-1.14-1.59-1.72-2.39-.61.07-1.23.14-1.85.22,3.16-2.11,6.48-4.01,9.93-5.7ZM190.42,52.04c-.06.25-.12.51-.18.76-3.16,1.48-6.2,3.16-9.11,5.03-.08-.02-.16-.05-.23-.07,2.91-1.88,5.97-3.58,9.14-5.07.03-.17.07-.35.1-.52-1.11-.15-2.01-.43-2.69-.87.11-.02.22-.05.32-.07.6.36,1.42.61,2.45.78.06.01.13.02.19.03ZM183.83,48.62c.52.87,1.03,1.75,1.54,2.62-.09.01-.18.03-.27.04-.51-.87-1.03-1.75-1.55-2.62.09-.02.18-.03.28-.04ZM185.46,45.24s-.03.06-.04.09c-.42,1.04-.61,1.84-.62,2.41-.08-.02-.15-.03-.23-.04.06-.83.28-1.67.68-2.52.07.02.14.04.21.06Z"/>
    <path class="cls-1" d="M195.94,40.49c-.26.37-.52.74-.77,1.11.92.74,1.82,1.49,2.7,2.25.11-.09.23-.18.35-.27-.79-.69-1.6-1.38-2.42-2.05.26-.38.52-.76.79-1.14.1,0,.2-.01.3-.02-.26.36-.51.73-.76,1.09.78.64,1.54,1.29,2.29,1.95.07-.06.1-.1.11-.11.09-.09.18-.19.27-.28.16-.16.27-.28.3-.34.34.44.76.8,1.24,1.09-.19.05-.33.08-.42.11-.63.19-1.06.39-1.3.61.96.87,1.9,1.76,2.81,2.67.55.12,1.1.24,1.64.36-1.58.43-3.15.9-4.7,1.42.33-.39.67-.78,1.01-1.17-.57-.52-1.14-1.03-1.72-1.54-.53.71-.88,1.35-1.08,1.9-.08.01-.15.03-.23.04.2-.55.57-1.21,1.12-1.98.02-.03.04-.06.05-.09-.1-.07-.19-.15-.29-.22-.6.68-1.03,1.39-1.29,2.12-.08-.04-.16-.08-.24-.12-.47-.23-1.04-.48-1.74-.73-.04-.01-.08-.03-.13-.04-.18.91-.15,1.58.04,2.03.11.26.28.46.49.59.21.13.65.31,1.32.56.06.02.15.06.27.1-1.62.61-3.22,1.27-4.79,1.98-.09-.03-.17-.06-.26-.09,1.48-.68,2.99-1.31,4.52-1.89-.07-.02-.14-.05-.21-.07-.54-.18-.91-.34-1.12-.48-.2-.14-.36-.33-.47-.58-.19-.43-.22-1.16-.06-2.22-.18-.04-.36-.08-.54-.13-.02.17-.04.4-.05.71,0,.25-.02.51-.02.76-.01.41.03.73.13.95.1.23.25.4.43.51.18.11.52.22,1,.35.05.01.12.03.21.06-1.5.59-2.99,1.22-4.44,1.9.68-.69,1.16-1.39,1.42-2.13.26-.73.39-1.75.42-3.04,0-.03,0-.07,0-.1-.42-.05-.96.03-1.6.26.18-.49.29-.95.3-1.4.11.02.19.03.21.03.18.03.37.06.55.08.19.03.41.05.66.07.02-.11.03-.23.05-.34-.05,0-.1-.01-.14-.02-.4-.06-.74-.09-1.01-.11-.04,0-.07,0-.11,0,.03-.07.06-.13.09-.2.41,0,.82.04,1.22.11.09-.96.19-1.91.31-2.87-.46-.11-.92-.21-1.38-.3,1.55-.61,3.12-1.18,4.71-1.7ZM193.49,42.84c-.16,1.08-.3,2.16-.42,3.24.63.14,1.18.3,1.66.5.2.08.4.16.6.25,0,0,.05.02.13.05.04-.06.06-.09.07-.1.03-.05.06-.1.09-.16.01-.02.04-.06.07-.12-.63-.3-1.32-.52-2.07-.66.11-.87.22-1.74.35-2.61-.16-.13-.32-.26-.48-.39ZM194.25,43.41c-.11.75-.21,1.49-.31,2.23.08.02.12.03.13.04.17.05.34.1.52.14.27.07.64.21,1.09.42.04.02.09.04.13.06.18-.33.42-.67.71-1.03-.74-.63-1.5-1.26-2.28-1.87ZM200.07,42.74c.27.35.82.78,1.6,1.31-.15.03-.23.04-.25.05-.27.06-.54.12-.81.18-.37.08-.63.15-.8.2-.03,0-.09.03-.19.07.87.79,1.71,1.6,2.54,2.42.84.23,1.66.48,2.48.74-1.81.45-3.6.97-5.37,1.54-.08-.04-.16-.08-.24-.12,1.62-.53,3.27-1.02,4.93-1.45-.66-.2-1.33-.4-2-.59-.88-.87-1.78-1.72-2.71-2.56.21-.11.46-.2.75-.29.35-.1.75-.2,1.2-.28-.05-.04-.11-.07-.16-.11-.58-.39-1.02-.77-1.31-1.14.12.01.23.02.35.03Z"/>
    <path class="cls-1" d="M216.66,34.11s.09.04.13.06c-.93.65-1.65,1.34-2.17,2.06-.52.72-1.11,1.82-1.72,3.3-.76,1.86-1.46,3.72-2.1,5.59.43.17.85.34,1.28.52-1.49.22-2.96.49-4.43.79.37-.33.74-.66,1.11-.98-1.67-2.1-3.46-4.15-5.37-6.14-.62-.16-1.24-.32-1.87-.47,1.75-.45,3.51-.85,5.28-1.2-.43.41-.86.83-1.28,1.25,1.67,1.83,3.24,3.71,4.72,5.63.09-.23.18-.46.27-.69-1.32-1.7-2.71-3.38-4.18-5.01.31-.3.62-.59.93-.89.07.03.15.06.22.09-.27.26-.55.51-.81.77,1.38,1.56,2.69,3.16,3.93,4.78.47-1.39.97-2.77,1.51-4.15.49-1.23.72-2.07.65-2.52-.07-.46-.4-.82-1-1.07.07-.02.14-.04.2-.06,2.09-.54,3.66-1.07,4.7-1.68ZM217.3,34.47s.08.1.11.15c-1.36.78-2.65,2.47-3.74,5.04-.75,1.78-1.45,3.57-2.08,5.36.58.33,1.14.67,1.71,1.01-1.65.23-3.3.5-4.93.83-.08-.05-.17-.09-.25-.14,1.52-.31,3.05-.57,4.59-.79-.46-.28-.92-.55-1.39-.81.64-1.83,1.34-3.65,2.1-5.47.14-.34.29-.69.44-1.03.4-.89.91-1.72,1.55-2.48.64-.76,1.27-1.31,1.9-1.66Z"/>
    <path class="cls-1" d="M231.67,33.84s.04.04.06.06c-.04.02-.08.04-.12.07-1.42.74-2.56,1.54-3.45,2.38-.34.32-.58.55-.73.68-1.4,1.31-2.72,2.65-3.98,4.01.01.93.02,1.85.03,2.78.48.3.96.6,1.43.91-1.59-.01-3.18.02-4.77.1.45-.33.91-.65,1.38-.97-.03-.92-.07-1.85-.1-2.77-.85-.81-1.73-1.61-2.64-2.4-.2-.18-.4-.35-.59-.53-.54-.47-1-.8-1.35-1.01-.35-.2-.86-.44-1.55-.69-.04-.02-.08-.03-.13-.05,1.84-.18,3.68-.31,5.52-.39-.44.31-.87.63-1.3.94,1.27,1.08,2.5,2.18,3.67,3.31.11-.12.22-.24.33-.35-1.05-1.02-2.13-2.02-3.26-2.99.37-.25.74-.49,1.11-.73.08.03.16.07.23.1-.32.2-.65.4-.97.61,1.05.93,2.06,1.88,3.03,2.84.77-.81,1.57-1.61,2.39-2.4.71-.69,1.09-1.2,1.1-1.55,0-.29-.29-.63-.91-1.02,2.17-.27,3.97-.56,5.42-.92.05-.01.09-.02.14-.03ZM232.14,34.29c0,.09-.02.19-.03.28-.04.02-.08.04-.12.06-.66.31-1.22.64-1.7.97-.47.33-1.17.91-2.07,1.73-1.37,1.24-2.67,2.51-3.91,3.81,0,.89,0,1.79,0,2.68.59.49,1.16.99,1.73,1.49-2.03-.04-4.06-.01-6.08.09-.04-.06-.08-.12-.13-.18,1.9-.1,3.8-.14,5.7-.11-.49-.44-.98-.87-1.49-1.29,0-.91,0-1.82,0-2.73,1.26-1.33,2.58-2.63,3.97-3.9.22-.2.44-.4.66-.6,1.19-1.07,2.35-1.83,3.46-2.3Z"/>
    <path class="cls-1" d="M236.39,36.77c1.7.23,3.4.51,5.08.83-.55.2-1.1.41-1.64.62-.19.97-.38,1.93-.57,2.9.15.05.34.09.55.14.19-.96.39-1.91.59-2.87.44-.17.88-.34,1.32-.5.06.05.12.11.19.16-.42.15-.83.31-1.25.47-.2.93-.39,1.86-.58,2.79.11.03.22.06.33.08.52.13,1.02.25,1.51.35.71.15,1.32.26,1.83.33.26-1.02.53-2.03.79-3.05-.36-.35-.73-.69-1.11-1.03,1.65.36,3.28.76,4.9,1.2-.57.16-1.15.32-1.71.49-.67,2.28-1.32,4.57-1.96,6.86.32.34.63.67.94,1.01-1.44-.39-2.9-.74-4.36-1.05.5-.17,1-.33,1.5-.49.24-.94.47-1.88.71-2.81-.58-.04-1.17-.12-1.76-.25-.56-.12-1.14-.25-1.73-.41-.05-.01-.09-.02-.14-.03-.19.95-.39,1.89-.58,2.84.45.52.89,1.05,1.32,1.58-1.64-.34-3.29-.62-4.94-.85-.07-.07-.15-.15-.22-.22,1.57.22,3.13.48,4.68.79-.36-.42-.73-.83-1.1-1.25.2-1.03.41-2.06.62-3.09.1.02.19.04.29.07.88.21,1.51.36,1.91.45.64.13,1.21.2,1.72.19.02-.08.04-.16.06-.24-.65-.08-1.39-.21-2.23-.38-.45-.09-.78-.16-.99-.21-.34-.08-.67-.17-1.01-.25-.04-.01-.12-.03-.23-.05-.22,1.11-.43,2.22-.64,3.33.37.31.73.63,1.09.95-1.48-.28-2.97-.52-4.46-.72.47-.21.95-.41,1.43-.61.16-.98.32-1.97.49-2.95-.57-.09-1.05,0-1.43.25-.07-.03-.14-.06-.2-.1.44-.28,1-.39,1.66-.33.01-.08.03-.17.04-.25-.76-.11-1.4,0-1.89.32-.05-.03-.1-.06-.14-.09.49-.6,1.21-.9,2.14-.88.17-1.01.34-2.02.51-3.04-.43-.35-.87-.69-1.31-1.03ZM248.65,39.69c-.42.12-.85.23-1.27.36-.68,2.23-1.34,4.46-1.99,6.7.41.56.8,1.12,1.19,1.68-1.61-.46-3.23-.87-4.87-1.23-.06-.08-.13-.15-.19-.23,1.54.33,3.07.71,4.59,1.14-.32-.45-.64-.89-.97-1.33.65-2.29,1.32-4.57,2.01-6.85.46-.14.92-.27,1.38-.41.04.06.08.12.12.18Z"/>
    <path class="cls-1" d="M259.35,43.02c-.46.1-.93.2-1.38.3.12,1.13.23,2.25.32,3.37.15,0,.3.02.45.03-.07-1.01-.16-2.03-.26-3.05.47-.11.94-.21,1.42-.31.07.06.15.12.22.18-.45.1-.9.19-1.35.3.09.96.17,1.93.24,2.89.09,0,.15,0,.17,0,.13-.01.27-.02.4-.03.24-.01.39-.03.47-.05-.07.54-.03,1.07.11,1.59-.18-.09-.3-.15-.38-.19-.59-.27-1.06-.4-1.39-.39.08,1.26.13,2.51.16,3.76.32.44.64.89.95,1.33-1.46-.71-2.95-1.37-4.46-1.99.52-.07,1.04-.14,1.57-.2-.05-.75-.11-1.5-.17-2.25-.89.18-1.61.42-2.15.7-.06-.04-.13-.08-.2-.12.54-.27,1.28-.52,2.23-.72.03-.01.07-.02.1-.03-.02-.12-.03-.23-.05-.35-.93.11-1.75.35-2.47.72-.03-.08-.06-.16-.09-.25-.18-.47-.43-1.03-.76-1.66-.02-.04-.04-.07-.06-.11-.78.55-1.24,1.06-1.42,1.52-.1.27-.12.52-.06.75.06.23.26.65.59,1.27.03.05.07.14.13.25-1.63-.6-3.28-1.15-4.95-1.64-.04-.08-.09-.15-.13-.23,1.58.46,3.14.97,4.68,1.53-.03-.06-.07-.13-.1-.19-.27-.48-.43-.84-.49-1.08-.05-.23-.03-.48.06-.74.17-.44.67-1,1.54-1.67-.1-.15-.2-.3-.31-.44-.14.11-.32.27-.55.49-.19.18-.38.36-.56.55-.3.29-.5.55-.58.79-.09.24-.1.46-.04.66.06.2.23.5.5.9.03.04.07.1.12.18-1.53-.54-3.07-1.03-4.63-1.48.99-.07,1.84-.28,2.56-.65.71-.37,1.53-1.03,2.49-1.97.02-.03.05-.05.07-.08-.27-.31-.72-.59-1.36-.85.49-.24.9-.51,1.24-.83.07.09.12.14.13.16.12.14.23.28.34.42.12.15.26.3.43.47.1-.07.19-.15.29-.22-.03-.04-.06-.07-.09-.11-.25-.3-.47-.55-.66-.74-.02-.03-.05-.05-.07-.08.07-.03.14-.06.21-.09.3.27.56.56.81.87.76-.64,1.54-1.27,2.33-1.89-.25-.37-.51-.74-.78-1.11,1.57.56,3.13,1.17,4.67,1.82ZM255.85,43.13c-.91.68-1.8,1.38-2.67,2.08.36.51.65.99.86,1.44.09.19.18.38.27.57,0,0,.02.05.06.12.07-.02.11-.03.12-.03.06-.02.12-.04.18-.06.03,0,.07-.02.14-.04-.25-.62-.59-1.23-1.04-1.82.7-.56,1.42-1.12,2.15-1.67-.02-.2-.04-.39-.07-.59ZM255.98,44.03c-.63.47-1.24.94-1.85,1.43.04.06.06.1.06.11.09.15.18.29.27.44.15.23.32.57.5,1.01.02.04.04.09.05.13.37-.12.79-.22,1.26-.29-.09-.94-.19-1.89-.3-2.83ZM260.7,47.31c-.05.43.03,1.09.23,1.98-.13-.08-.2-.12-.22-.13-.24-.13-.48-.26-.72-.39-.33-.18-.57-.3-.72-.37-.03-.01-.09-.04-.19-.08.06,1.14.11,2.28.14,3.41.45.71.88,1.42,1.3,2.14-1.65-.83-3.33-1.61-5.04-2.33-.03-.08-.06-.16-.09-.24,1.57.66,3.13,1.36,4.65,2.12-.34-.58-.7-1.15-1.06-1.72-.03-1.21-.09-2.41-.16-3.63.23.06.48.15.75.27.33.15.69.34,1.08.57-.01-.06-.03-.12-.04-.19-.14-.66-.19-1.22-.13-1.67.08.08.15.17.23.25Z"/>
    <path class="cls-1" d="M275.99,52.29c-.73-.11-1.45-.22-2.18-.31-.91,1.17-1.81,2.36-2.69,3.54-.49.65-.87,1.11-1.14,1.35-.27.25-.57.4-.89.47-.81.17-1.86-.17-3.21-.99-1.43-.86-2.31-1.68-2.6-2.51-.24-.65-.04-1.55.63-2.68.77-1.31,1.56-2.61,2.35-3.92-.28-.47-.57-.93-.86-1.4,1.51.78,2.99,1.6,4.45,2.46-.59,0-1.18.02-1.77.03-.82,1.26-1.62,2.53-2.42,3.8-.18.3-.36.61-.54.91-.36.58-.44,1.09-.24,1.53.2.44.7.9,1.51,1.39.89.54,1.61.75,2.2.61.47-.12,1.04-.64,1.73-1.58.88-1.19,1.78-2.38,2.69-3.56-.26-.57-.53-1.13-.81-1.7,1.29.82,2.55,1.66,3.78,2.54ZM275.98,52.86c-.56-.08-1.11-.15-1.66-.22-.89,1.12-1.76,2.25-2.62,3.38-.85,1.11-1.52,1.76-2.03,1.93-1.03.34-2.28.02-3.82-.92-1.33-.81-2.21-1.62-2.62-2.49.02.02.04.04.05.06.08.09.15.19.22.28.52.67,1.3,1.3,2.35,1.94,1.5.91,2.68,1.23,3.64.91.51-.18,1.15-.78,1.94-1.82.88-1.17,1.78-2.34,2.69-3.5.6.08,1.21.16,1.82.25.01.07.02.14.04.2ZM270.03,48.84c-.43,0-.86.02-1.28.04-.94,1.42-1.87,2.85-2.78,4.29-.09.13-.18.26-.26.4-.07.3-.14.59-.2.89.04.22.17.54.39.96,0,.02-.01.04-.02.06-.38-.41-.59-.79-.61-1.14-.02-.36.13-.8.46-1.33.92-1.45,1.85-2.9,2.79-4.34.49-.01.97-.02,1.46-.02.02.07.03.13.05.2Z"/>
    <path class="cls-1" d="M276.82,52.89c1.37,1,2.71,2.04,4.02,3.12-.6-.09-1.2-.17-1.8-.25-1.66,1.82-3.28,3.66-4.87,5.53.02.02.04.03.06.05.09.08.17.15.26.23.02.02.05.04.07.05,1.59-1.84,3.22-3.66,4.88-5.46.46.05.93.11,1.4.17,0,.07,0,.14,0,.2-.42-.05-.84-.1-1.26-.15-1.65,1.77-3.26,3.57-4.84,5.38.21.19.42.37.62.54.78.64,1.47,1.03,2.08,1.13.61.11,1.25-.04,1.91-.45-.43,1.3-.58,2.32-.45,3.07-2.39-2.26-4.94-4.37-7.64-6.32.51.05,1.03.11,1.55.18,1.51-1.86,3.05-3.69,4.62-5.51-.2-.51-.4-1.03-.6-1.54ZM279.6,66.68c-.25.04-.5.09-.75.14-2.36-2.25-4.88-4.37-7.54-6.31-.03-.1-.05-.19-.08-.29,2.71,1.97,5.27,4.11,7.67,6.4.17-.04.34-.08.51-.11-.06-.91.02-1.78.25-2.61,0-.03.02-.05.03-.08.06.09.11.18.17.27-.01.04-.02.09-.03.13-.17.77-.24,1.56-.23,2.37,0,.03,0,.07,0,.1Z"/>
  </g>
  <g>
    <path class="cls-1" d="M177.14,169.46c-.06.02-.11.04-.17.06-.92.32-1.8.68-2.64,1.06-.06.03-.12.06-.18.09-.02-.04-.04-.07-.05-.11.41-.68.57-1.35.5-2-.07-.65-.36-1.19-.87-1.62-.55-.47-1.19-.65-1.95-.56-.95.11-2.03.77-3.26,2-1.06,1.06-1.68,2.08-1.83,3.1-.15,1.01.2,1.89,1.05,2.6.68.57,1.4.83,2.15.79.74-.04,1.46-.38,2.13-1.01.16-.15.32-.17.46-.06.19.14.17.34-.05.6-.33.39-.79.7-1.37.95-1.22.52-2.6.21-4.02-.99-1.27-1.07-1.89-2.3-1.89-3.63,0-1.33.63-2.55,1.82-3.68,1.09-1.04,2.33-1.59,3.7-1.68,1.37-.1,2.53.28,3.54,1.14.48.41.94.97,1.38,1.69.23.38.46.65.68.82.24.18.5.29.79.31.02.05.04.09.06.14ZM173.11,174.82c-.92.94-1.92,1.44-2.99,1.48-1.07.04-2.18-.38-3.26-1.29-.82-.69-1.38-1.54-1.67-2.54.02-.02.03-.03.05-.04.28.86.87,1.67,1.76,2.42.97.81,2.02,1.2,3.1,1.19.52-.01.99-.12,1.4-.31.41-.2.86-.53,1.34-1,.04-.04.09-.08.13-.13.05.08.1.16.15.24ZM174.31,168.97c-.16-.61-.41-1.07-.76-1.36-1.12-.95-2.54-.52-4.36,1.33-.83.84-1.39,1.67-1.67,2.48-.28.81-.24,1.52.12,2.14-.02.02-.04.04-.06.06-.48-.57-.59-1.31-.33-2.19.26-.88.85-1.77,1.74-2.67,1.91-1.93,3.42-2.35,4.65-1.31.42.35.66.84.73,1.46-.02.03-.04.05-.07.08ZM177.4,170.11c-.06.02-.11.04-.17.06-1.1.38-2.07.75-2.89,1.13-.04-.07-.08-.15-.12-.22.07-.03.14-.06.2-.09.59-.24,1.08-.43,1.48-.57.42-.15.84-.29,1.25-.44.05-.02.1-.04.16-.06.03.07.06.13.09.2Z"/>
    <path class="cls-1" d="M178,170.94c1.54.22,2.94.73,4.25,1.54,1.02.63,1.74,1.32,2.17,2.1.43.78.47,1.48.08,2.09-.32.51-.83.83-1.55.96-.72.13-1.55.05-2.48-.26-.2,1.02-.25,2.1-.12,3.23.13,1.14.4,2.09.82,2.86-.05-.01-.1-.02-.15-.03-1-.22-2.03-.36-3.12-.42-.06,0-.12,0-.17,0,.03-.08.07-.15.1-.23.8-1.86,1.28-3.54,1.49-5.04,0-.03,0-.05.01-.08-.46-.08-1.02-.27-1.67-.57-.02-.01-.04-.02-.07-.03-.58.78-1.17,1.56-1.76,2.34.17.69.36,1.38.55,2.07-1.43-.86-2.83-1.76-4.19-2.71,0-.08,0-.17,0-.25,1.25.87,2.53,1.71,3.84,2.51-.16-.57-.31-1.13-.45-1.7.64-.84,1.27-1.68,1.9-2.52.06.03.12.06.18.08.62.32,1.19.53,1.69.64,0-.07,0-.11.01-.13.02-.08.04-.15.05-.23,0-.02,0-.05.02-.1-.37-.12-1.04-.41-1.98-.88-.03-.01-.06-.03-.09-.04-.7.93-1.4,1.85-2.12,2.78.11.44.23.88.35,1.33-1.2-.75-2.37-1.53-3.52-2.35.54,0,1.08,0,1.61-.02.55-.69,1.1-1.37,1.65-2.06-.02-.01-.04-.02-.07-.04-.33-.15-.65-.27-.93-.37-.03,0-.05-.02-.07-.02.01-.06.02-.11.03-.17.28.09.49.16.63.22.15.07.31.13.46.2.02,0,.05.02.07.03.08-.11.17-.21.25-.32-.3-.2-.7-.4-1.23-.61-.03-.01-.07-.02-.1-.03.06-.05.21-.15.47-.29.02,0,.13-.08.33-.2.01,0,.04-.02.07-.04.21.17.38.3.5.38.13.09.26.17.39.24.79-1.01,1.58-2.02,2.35-3.02-.13-.26-.28-.52-.45-.76-.01-.02-.03-.04-.04-.06ZM180.26,172.23c-.82,1.12-1.65,2.24-2.49,3.36.15.09.29.17.44.24.76-1.03,1.51-2.05,2.26-3.08.31.11.65.28,1.03.51.95.59,1.42,1.24,1.41,1.99-.2-.47-.41-.84-.62-1.1-.21-.26-.51-.51-.89-.74-.3-.18-.58-.32-.83-.41-.71.99-1.43,1.97-2.16,2.96.03.01.06.03.09.04,1.11.48,2.04.69,2.75.65.72-.04,1.25-.34,1.6-.87.31-.48.35-.99.13-1.55-.22-.56-.64-1.03-1.28-1.42-.51-.32-.99-.51-1.45-.57ZM181.24,178.25c-.26,1.07-.24,2.28.09,3.61.21.83.62,1.69,1.25,2.55-1.5-.38-2.99-.63-4.52-.73-.03,0-.07,0-.1,0-.03-.07-.07-.13-.1-.2,1.46.08,2.89.3,4.3.66-1.14-1.68-1.52-3.7-1.16-6,0-.05.02-.09.03-.14,1.95.42,3.25.06,3.88-.98.26-.43.34-1,.26-1.72.26.68.21,1.32-.17,1.94-.61,1-1.87,1.37-3.76,1.01Z"/>
    <path class="cls-1" d="M194.98,178.81c-.4.17-.8.33-1.21.5-.01,1.17-.01,2.35,0,3.52.14,0,.27-.02.41-.03-.02-1.06-.03-2.12-.03-3.18.41-.17.83-.35,1.23-.53.06.05.12.1.18.15-.39.17-.78.34-1.18.51,0,1,0,2.01.03,3.01.09-.02.14-.03.15-.03.12-.03.24-.06.37-.1.22-.05.36-.1.42-.13-.08.58-.04,1.13.1,1.66-.17-.07-.29-.11-.36-.14-.55-.19-.98-.26-1.3-.21.02,1.32.07,2.65.14,3.98.35.42.7.84,1.06,1.26-1.58-.49-3.14-1.02-4.68-1.6.55-.11,1.09-.22,1.63-.34-.03-.8-.05-1.59-.06-2.38-.88.27-1.62.56-2.19.88-.06-.04-.12-.08-.18-.12.57-.31,1.34-.61,2.28-.91.03-.01.07-.03.1-.04,0-.12-.02-.24-.02-.37-.91.19-1.74.49-2.5.91-.02-.09-.04-.17-.06-.26-.11-.5-.28-1.09-.5-1.76-.01-.04-.03-.08-.04-.12-.84.59-1.41,1.11-1.67,1.6-.15.28-.22.55-.2.8.02.25.15.71.4,1.38.02.06.05.15.1.27-1.63-.67-3.24-1.39-4.82-2.16-.02-.09-.04-.18-.07-.26,1.48.73,2.99,1.41,4.52,2.05-.03-.07-.05-.14-.08-.21-.2-.53-.31-.92-.32-1.17-.01-.25.06-.51.2-.78.25-.46.87-1.04,1.82-1.75-.07-.16-.14-.31-.21-.47-.15.11-.36.28-.62.51-.22.19-.44.38-.66.56-.36.3-.6.57-.74.81-.14.25-.2.48-.18.7.02.22.13.55.34.99.02.04.05.11.09.2-1.49-.64-2.96-1.31-4.4-2.03,1.03.09,1.95-.04,2.75-.38.8-.33,1.76-.98,2.86-1.95.03-.03.06-.05.08-.08-.19-.33-.54-.65-1.07-.95.51-.22.95-.5,1.33-.83.04.09.07.15.08.17.07.15.14.3.22.45.07.15.17.32.29.5.1-.08.2-.15.31-.23-.02-.04-.04-.07-.06-.11-.17-.32-.31-.58-.43-.78-.02-.03-.03-.05-.05-.08.07-.03.14-.06.21-.09.2.29.38.59.55.92.82-.68,1.61-1.37,2.4-2.07-.15-.38-.31-.75-.45-1.13,1.21.52,2.43,1.01,3.67,1.47ZM191.97,179.3c-.89.78-1.81,1.55-2.75,2.31.24.53.43,1.04.57,1.51.06.2.12.4.18.6,0,0,.02.05.04.12.07-.02.11-.03.12-.04.06-.02.12-.05.18-.07.03-.01.07-.03.14-.05-.16-.65-.4-1.29-.72-1.9.75-.62,1.49-1.24,2.21-1.87,0-.21.02-.41.03-.62ZM191.95,180.24c-.62.54-1.25,1.08-1.89,1.61.03.07.04.1.04.12.06.15.13.3.19.46.11.24.22.59.34,1.06.01.05.02.09.04.14.37-.15.78-.28,1.23-.39,0-.99.02-1.99.05-2.98ZM195.99,183.1c-.05.46.03,1.14.26,2.04-.12-.06-.2-.09-.21-.09-.23-.09-.46-.19-.7-.28-.31-.13-.54-.22-.69-.27-.02,0-.08-.03-.18-.05.05,1.2.12,2.4.21,3.6.5.68,1.01,1.36,1.54,2.03-1.84-.54-3.65-1.13-5.44-1.78-.03-.08-.06-.17-.09-.25,1.63.6,3.29,1.15,4.97,1.65-.42-.54-.83-1.09-1.23-1.64-.09-1.28-.16-2.55-.21-3.83.22.03.45.08.71.17.32.11.66.24,1.03.41-.01-.06-.03-.13-.04-.19-.15-.67-.19-1.25-.14-1.74.07.07.14.15.21.22Z"/>
    <path class="cls-1" d="M199.95,181.53c1.59-.35,3.19-.34,4.85.04,1.21.28,2.14.71,2.81,1.32.67.61.94,1.28.78,2.03-.21.99-1.07,1.54-2.58,1.59,0,.03-.01.05-.02.08.14.06.3.13.5.22.7,0,1.29-.16,1.76-.48.47-.32.75-.76.87-1.31.14-.69-.08-1.36-.63-2.01,0-.01,0-.03,0-.04.03.03.05.06.08.08.64.62.9,1.31.75,2.08-.22,1.06-1.05,1.69-2.52,1.85.54.33.94.72,1.19,1.18.25.46.32.94.22,1.45-.15.72-.62,1.25-1.42,1.56-.8.31-1.79.36-2.95.11-2.31-.48-4.6-1.04-6.86-1.7.54-.15,1.07-.31,1.61-.47.36-1.03.72-2.05,1.08-3.08-.35-.1-.78-.18-1.27-.26,0-.08,0-.15,0-.23.54.11.99.21,1.33.31.04-.13.09-.25.13-.38-.07-.02-.15-.04-.22-.06-.33-.09-.76-.19-1.27-.3.21-.19.43-.38.64-.57.05.02.09.03.14.05.22.08.39.14.51.17.18.05.31.09.41.14.31-.89.61-1.78.91-2.67-.27-.23-.54-.46-.81-.7ZM208.13,187.89c.57.51.79,1.18.62,2-.17.83-.69,1.45-1.58,1.86-.87.4-2.06.46-3.52.16-2.22-.45-4.41-.99-6.57-1.6-.03-.08-.06-.16-.09-.24,2,.57,4.03,1.07,6.08,1.5,1.34.28,2.33.36,2.97.26,1.43-.22,2.24-.92,2.47-2.05.13-.63-.04-1.25-.5-1.86.04-.02.08-.03.13-.05ZM202.63,182.14c-.33,1.08-.67,2.15-1.01,3.23.07.01.11.02.14.03.05.02.11.03.16.05.02,0,.07.02.15.04.3-.98.6-1.95.9-2.93.55-.07,1.05-.05,1.52.05.54.12.94.3,1.21.53.27.23.47.56.59,1-.07-.05-.14-.11-.22-.17-.3-.63-.84-1.03-1.63-1.22-.45-.1-.87-.09-1.29.03-.27.92-.55,1.84-.83,2.75.13.03.25.06.38.09,1.14.27,2.04.3,2.67.11.64-.19,1.03-.61,1.18-1.24.14-.56.02-1.05-.34-1.48-.36-.43-.89-.72-1.6-.89-.63-.14-1.28-.14-1.97,0ZM201.44,185.95c-.42,1.31-.84,2.63-1.27,3.94.16.04.32.08.48.12.37-1.17.74-2.34,1.11-3.52.44.08.75.14.94.19,1,.23,1.72.46,2.13.71.42.24.71.6.88,1.07-.04,0-.07-.01-.11-.02-.22-.39-.54-.7-.96-.92-.42-.22-1.06-.43-1.93-.63-.25-.05-.5-.11-.75-.16-.34,1.12-.69,2.23-1.04,3.35.1.02.2.05.3.07.46.1.93.19,1.4.28,1.83.3,2.91-.2,3.2-1.43.19-.77.03-1.35-.47-1.74-.5-.4-1.51-.75-3.04-1.12-.15-.04-.44-.09-.86-.18Z"/>
    <path class="cls-1" d="M223.86,183.86c-.3.35-.54.71-.72,1.08-.36.74-.61,1.19-.73,1.36-.02.01-.03.03-.05.04-.02-.05-.04-.1-.05-.13-.16-.44-.29-.75-.4-.93-.1-.17-.26-.34-.47-.5-.53-.41-1.12-.63-1.8-.65-.63-.03-1.15.09-1.59.36-.44.27-.68.62-.72,1.06-.07.82.64,1.45,2.18,1.81.51.12,1.03.24,1.54.35,2.2.48,3.35,1.38,3.38,2.83.01.81-.37,1.49-1.18,2.04-.81.55-1.84.82-3.05.78-.76-.02-1.6-.14-2.52-.37-.38-.09-.76-.19-1.14-.29-.46-.12-.84-.19-1.14-.21-.4-.03-.83.03-1.28.18-.02-.04-.04-.07-.07-.11.93-.84,1.58-1.67,1.98-2.48.06.02.11.03.17.05.06.78.41,1.41,1.06,1.88.65.47,1.55.73,2.67.77.88.03,1.6-.11,2.12-.41.52-.3.78-.71.78-1.23,0-.6-.35-1.09-1.04-1.49-.49-.28-1.51-.56-3.02-.86-1.17-.24-1.99-.6-2.48-1.07-.48-.46-.67-1.07-.59-1.82.08-.78.49-1.37,1.2-1.81.71-.43,1.58-.62,2.63-.57.68.03,1.46.16,2.37.38.42.11.74.16.94.16.29,0,.6-.08.93-.25.03.01.06.02.1.04ZM223.91,188.58c.85.5,1.3,1.18,1.33,2.06.03.94-.43,1.75-1.4,2.41-.97.66-2.19.98-3.62.94-.73-.02-1.38-.1-1.95-.24-.53-.12-1.06-.25-1.58-.38-.37-.09-.76-.16-1.19-.19-.38-.03-.73,0-1.07.08-.03-.07-.06-.15-.09-.22.36-.09.72-.12,1.07-.09.4.03.85.11,1.35.23.5.12,1.01.25,1.52.36.61.14,1.25.22,1.94.24,1.34.04,2.49-.27,3.41-.9.93-.63,1.36-1.41,1.34-2.3-.02-.75-.38-1.41-1.06-1.97,0-.01,0-.03,0-.04ZM216.13,188.04c.1.05.2.11.3.16.18.3.75.59,1.74.84.5.13,1,.25,1.5.37,1.02.24,1.71.43,2.06.58.34.15.59.37.73.67-.02,0-.04.02-.07.03-.29-.26-.59-.45-.92-.57-.33-.12-.97-.28-1.9-.49-1.35-.3-2.24-.58-2.69-.79-.45-.21-.7-.48-.75-.79ZM217.09,190.51c.16.9.75,1.57,1.79,1.99,0,.02,0,.04,0,.06-1.21-.32-1.89-1.01-2.05-2.03.09,0,.17-.01.26-.02ZM221.82,185.64c-.65-.59-1.33-.89-2.07-.92-.45-.02-.82.07-1.13.27-.31.2-.48.47-.5.8-.03.36.25.76.84,1.17.02.01.05.03.07.04-.02.02-.03.04-.05.06-.79-.33-1.15-.78-1.11-1.33.03-.38.22-.69.57-.91.35-.22.78-.32,1.31-.3.5.02.94.12,1.32.31.38.19.65.45.82.77-.02,0-.04.02-.06.03ZM224.41,184.17s-.05.07-.08.11c-.23.34-.44.67-.61.98-.41.73-.65,1.13-.71,1.21-.02.02-.03.03-.05.05-.07-.02-.14-.05-.22-.07.01-.02.02-.04.04-.07.18-.32.43-.75.75-1.27.2-.33.4-.65.59-.98.01-.02.03-.04.04-.06.08.03.15.06.23.09Z"/>
    <path class="cls-1" d="M235.47,182.88c-.6.38-.98.7-1.14.97-.23.41-.29.99-.17,1.73.03.16.05.32.08.48.34,2.15.7,4.3,1.06,6.45-.56.07-1.11.13-1.67.19-1.88-2.07-3.61-4.2-5.21-6.36.1,1.33.2,2.67.31,4,0,.11.01.22.02.33.07.35.13.7.2,1.05.17.48.5.83.99,1.03.03.02.06.03.08.05-.93-.16-1.44-.87-1.53-2.09-.01-.23-.03-.46-.04-.69-.1-1.35-.2-2.69-.29-4.03-.18-.25-.36-.5-.54-.75.09,1.42.18,2.83.28,4.25.09,1.35.26,2.23.53,2.63.27.4.85.68,1.74.81.31.21.62.41.94.62-1.81.15-3.62.24-5.44.29-.06-.07-.11-.13-.17-.2,1.67-.04,3.35-.12,5.01-.25-.19-.12-.37-.24-.56-.37-1.54.11-3.09.18-4.64.21.8-.23,1.33-.55,1.57-.92.24-.37.34-1.01.29-1.89-.11-1.97-.22-3.94-.32-5.91-.41-.26-.81-.52-1.2-.78,1.47-.04,2.94-.12,4.4-.25-.39.27-.78.53-1.17.79,1.61,2.22,3.37,4.4,5.28,6.53-.04-.29-.09-.59-.13-.88-1.62-1.82-3.12-3.68-4.52-5.58.39-.26.77-.53,1.15-.8.06.04.12.08.18.12-.34.24-.68.48-1.02.71,1.29,1.74,2.67,3.46,4.15,5.14-.17-1.14-.35-2.28-.52-3.42-.02-.13-.04-.26-.06-.39-.13-.85-.29-1.41-.5-1.68-.21-.27-.65-.49-1.33-.69,1.31-.13,2.62-.29,3.92-.49ZM235.87,183.37c-.04.08-.08.16-.12.24-.43.15-.71.36-.82.62-.12.26-.13.67-.04,1.23.43,2.51.87,5.03,1.32,7.54-.71.1-1.42.18-2.14.26-.05-.06-.11-.12-.16-.18.67-.07,1.33-.15,1.99-.24-.43-2.42-.84-4.85-1.25-7.27-.11-.69-.09-1.18.08-1.48.17-.3.54-.54,1.13-.71Z"/>
    <path class="cls-1" d="M244.08,181.11c-.2.36-.41.71-.61,1.07.78.92,1.59,1.84,2.42,2.75.1-.08.2-.17.3-.25-.75-.82-1.48-1.64-2.2-2.47.21-.37.41-.74.62-1.11.08,0,.16.01.24.02-.19.35-.38.71-.58,1.06.68.78,1.37,1.56,2.09,2.33.06-.06.09-.1.1-.11.07-.09.15-.19.22-.28.14-.16.22-.27.25-.33.34.5.75.91,1.22,1.24-.17.04-.3.07-.38.09-.56.16-.95.35-1.16.56.94,1.02,1.91,2.02,2.91,3.01.57.14,1.14.27,1.72.4-1.58.49-3.18.93-4.79,1.34.35-.39.69-.78,1.03-1.17-.59-.6-1.17-1.2-1.73-1.81-.5.7-.87,1.33-1.1,1.9-.08,0-.15,0-.23,0,.23-.56.62-1.21,1.15-1.97.02-.03.03-.06.05-.09-.09-.09-.18-.18-.27-.27-.57.65-1.01,1.35-1.31,2.09-.08-.06-.15-.11-.23-.17-.44-.32-.99-.69-1.62-1.09-.04-.02-.08-.04-.12-.07-.25.92-.32,1.64-.18,2.16.08.3.22.55.41.73.19.18.62.46,1.29.84.06.03.15.09.27.16-1.75.38-3.52.71-5.3,1-.08-.06-.16-.11-.24-.17,1.67-.26,3.34-.57,4.99-.92-.07-.04-.14-.08-.21-.12-.53-.3-.89-.54-1.08-.73-.19-.19-.32-.43-.39-.72-.13-.49-.05-1.28.2-2.36-.16-.08-.33-.17-.49-.25-.04.17-.08.42-.13.74-.04.27-.08.53-.12.8-.07.43-.07.77,0,1.03.07.27.19.48.35.64.17.15.49.35.96.58.05.02.12.06.21.1-1.62.33-3.24.62-4.88.87.86-.5,1.49-1.11,1.88-1.81.39-.7.69-1.73.88-3.09,0-.04,0-.07.01-.11-.38-.15-.87-.2-1.49-.14.24-.46.4-.92.48-1.38.1.05.16.08.18.09.16.08.32.15.48.23.16.08.36.15.58.23.03-.12.05-.23.08-.35-.04-.02-.08-.03-.13-.05-.35-.15-.65-.27-.88-.37-.03-.01-.06-.02-.09-.04.03-.06.07-.12.1-.19.36.11.71.24,1.06.4.17-.98.33-1.97.48-2.95-.38-.21-.75-.42-1.12-.63,1.3-.27,2.6-.58,3.88-.92ZM242.04,183.19c-.17,1.11-.37,2.22-.58,3.33.56.28,1.06.56,1.5.85.18.12.37.24.56.36,0,0,.05.03.12.07.04-.06.07-.09.07-.1.03-.05.06-.1.09-.15.01-.02.04-.06.07-.12-.58-.42-1.21-.77-1.89-1.07.16-.9.32-1.79.45-2.69-.13-.17-.27-.33-.4-.5ZM242.67,183.94c-.12.77-.25,1.54-.38,2.31.07.04.11.06.11.07.15.08.31.17.46.25.25.13.58.34,1,.63.04.03.08.06.12.09.18-.32.42-.65.69-.99-.69-.78-1.36-1.56-2.01-2.35ZM247.8,183.9c.28.39.82.87,1.62,1.45-.14.03-.21.04-.23.05-.25.06-.49.11-.74.17-.34.07-.58.13-.73.17-.02,0-.08.03-.18.06.87.91,1.77,1.8,2.69,2.69.87.25,1.75.5,2.65.73-1.81.59-3.65,1.13-5.51,1.61-.08-.05-.17-.1-.25-.15,1.7-.44,3.38-.92,5.05-1.45-.72-.19-1.43-.39-2.13-.6-.98-.94-1.93-1.9-2.86-2.86.19-.1.41-.19.67-.26.32-.09.68-.18,1.09-.25-.06-.04-.11-.08-.17-.12-.59-.44-1.02-.87-1.31-1.28.11.02.21.04.32.06Z"/>
    <path class="cls-1" d="M249.96,180.28c1.04-1.08,2.26-1.9,3.7-2.49,1.12-.46,2.13-.65,3.07-.57.94.08,1.59.43,1.94,1.06.29.52.31,1.09.04,1.71-.27.63-.79,1.22-1.57,1.78.83.69,1.81,1.3,2.94,1.79,1.13.5,2.18.79,3.13.88-.04.03-.07.06-.11.1-.73.64-1.41,1.36-2.04,2.16-.03.04-.07.08-.1.13-.06-.07-.11-.13-.17-.2-1.35-1.57-2.66-2.82-3.94-3.77-.02-.02-.05-.04-.07-.05-.32.31-.79.64-1.42.99-.02.01-.04.02-.07.03.41.86.83,1.71,1.25,2.57.74.22,1.49.44,2.24.65-1.57.64-3.15,1.24-4.76,1.79-.08-.05-.15-.09-.23-.14,1.48-.5,2.94-1.05,4.38-1.63-.62-.17-1.23-.35-1.84-.54-.45-.92-.9-1.85-1.34-2.77.06-.03.11-.06.17-.09.63-.31,1.13-.63,1.49-.97-.06-.04-.1-.07-.11-.08-.06-.05-.12-.11-.18-.16-.01-.01-.04-.03-.08-.06-.31.23-.93.59-1.87,1.06-.03.02-.06.03-.09.05.48,1.02.97,2.05,1.46,3.07.47.14.95.28,1.43.42-1.34.52-2.69,1.01-4.06,1.47.28-.41.56-.82.83-1.24-.35-.78-.7-1.55-1.04-2.33-.02.01-.05.02-.07.03-.32.18-.6.35-.84.52-.02.01-.04.03-.06.05-.05-.04-.09-.07-.14-.11.23-.17.41-.29.54-.37.14-.08.29-.17.43-.25.02-.01.04-.03.06-.04-.05-.12-.11-.24-.16-.36-.34.12-.75.33-1.22.63-.03.02-.06.04-.09.06-.02-.07-.02-.24-.01-.51,0-.02,0-.14,0-.36,0-.02,0-.04,0-.07.27-.07.47-.14.62-.19.16-.05.3-.11.43-.17-.5-1.14-.99-2.28-1.48-3.42-.31-.04-.62-.06-.92-.05-.02,0-.05,0-.07,0ZM252.35,179.2c.56,1.24,1.13,2.48,1.71,3.71.17-.06.32-.13.45-.21-.54-1.13-1.06-2.25-1.59-3.38.27-.18.6-.36,1.02-.53,1.04-.42,1.89-.44,2.57-.03-.54-.1-.98-.13-1.33-.11-.35.03-.73.12-1.15.29-.33.13-.6.27-.83.43.51,1.08,1.02,2.16,1.53,3.24.03-.02.06-.03.09-.05,1.04-.6,1.72-1.21,2.07-1.78.34-.58.36-1.15.06-1.7-.27-.5-.71-.81-1.33-.94-.62-.13-1.28-.05-1.97.23-.56.23-.99.5-1.3.83ZM258.36,181.65c.85.77,1.98,1.39,3.42,1.83.89.27,1.92.41,3.07.39-1.15.94-2.17,1.95-3.06,3.05-.02.03-.04.05-.06.08-.08,0-.16-.02-.24-.03.84-1.07,1.79-2.04,2.88-2.92-2.19,0-4.3-.78-6.24-2.27-.04-.03-.07-.06-.11-.09,1.43-1.28,1.79-2.47,1.18-3.52-.25-.43-.73-.81-1.42-1.13.75.16,1.31.55,1.68,1.18.59,1.01.26,2.18-1.09,3.45Z"/>
    <path class="cls-1" d="M267.36,170.5c0,.06-.01.13-.02.19-.08.84-.02,1.69.19,2.55-.12-.06-.21-.11-.27-.14-.64-.32-1.15-.46-1.56-.41-.41.05-1,.32-1.8.8-.37.22-.8.49-1.31.81.64.99,1.3,1.97,1.96,2.96.17-.09.33-.19.5-.29-.59-.87-1.17-1.74-1.75-2.61.36-.25.7-.48,1.04-.68.62-.38,1.11-.61,1.49-.68.37-.07.79-.02,1.26.15-.1,0-.17,0-.21,0-.59,0-.99.01-1.2.07-.21.06-.57.25-1.09.57-.16.1-.43.27-.83.53-.05.03-.1.07-.15.1.54.81,1.09,1.62,1.64,2.43.47-.28.95-.56,1.41-.85.06-.57.12-1.15.17-1.72.66.9,1.32,1.8,1.99,2.7-.59-.14-1.18-.28-1.76-.43-.7.43-1.41.85-2.12,1.26.81,1.2,1.63,2.4,2.45,3.6.18-.1.35-.2.53-.3-.77-1.1-1.53-2.19-2.28-3.29.57-.33,1.13-.67,1.69-1.01.11.01.21.03.32.04-.56.35-1.13.69-1.7,1.02.72,1.04,1.44,2.08,2.17,3.12,1.12-.65,1.86-1.2,2.23-1.61.37-.41.54-.88.53-1.4,0-.28-.02-.56-.03-.84,0-.03,0-.1-.01-.2.49.36.94.61,1.36.75.42.13,1,.22,1.76.25-2.92,2.05-6,3.9-9.21,5.54.27-.48.54-.95.8-1.43-.63-.97-1.26-1.93-1.88-2.9-.42.29-.76.61-1.02.99-.07-.03-.13-.05-.2-.08.21-.36.58-.72,1.11-1.08-.07-.1-.13-.2-.2-.31-.1.04-.16.07-.2.09-.54.29-.94.71-1.2,1.27-.18-.83.17-1.46,1.04-1.93-.59-.93-1.17-1.85-1.75-2.78-.55-.05-1.09-.11-1.63-.18,2.69-1.39,5.28-2.95,7.75-4.67ZM274.86,177.37c.02.28.04.56.06.83-2.85,2.04-5.86,3.88-9,5.52-.08-.03-.17-.07-.25-.1,3.14-1.64,6.15-3.48,9.01-5.51-.02-.19-.04-.38-.06-.57-1.2,0-2.19-.22-2.99-.63.1-.03.2-.06.31-.09.7.33,1.61.52,2.72.55.07,0,.14,0,.21,0ZM267.48,174.18c.68.92,1.37,1.84,2.07,2.75-.09.01-.17.03-.25.04-.69-.92-1.38-1.84-2.06-2.76.08-.01.16-.03.24-.04ZM268.02,170.69s0,.06,0,.09c-.05,1.07,0,1.9.14,2.49-.07-.02-.15-.03-.22-.05-.16-.86-.19-1.72-.11-2.59.07.02.13.04.2.06Z"/>
    <path class="cls-1" d="M274.82,164.56c.04.46.13.89.28,1.3.29.8.44,1.3.48,1.51,0,.02,0,.04,0,.06-.06-.03-.1-.05-.13-.06-.45-.23-.77-.38-.97-.44-.2-.06-.44-.09-.71-.07-.68.03-1.26.26-1.77.68-.47.39-.76.82-.88,1.3-.12.48-.03.91.27,1.26.56.66,1.54.67,2.91-.04.46-.24.91-.48,1.36-.73,1.92-1.07,3.4-1.14,4.53-.06.62.6.88,1.37.73,2.31-.15.94-.66,1.8-1.54,2.55-.55.47-1.24.92-2.07,1.34-.34.17-.69.34-1.03.51-.42.21-.74.39-.98.57-.31.23-.56.54-.77.94-.04-.01-.09-.03-.13-.04,0-1.21-.18-2.24-.51-3.1.05-.02.11-.05.16-.07.64.55,1.38.79,2.2.73.83-.06,1.66-.44,2.49-1.13.65-.55,1.04-1.11,1.17-1.67.14-.56,0-1.04-.39-1.43-.45-.45-1.08-.59-1.87-.45-.57.11-1.49.56-2.8,1.3-1.01.57-1.88.83-2.57.79-.69-.04-1.29-.37-1.8-.98-.52-.64-.67-1.34-.49-2.13.19-.78.68-1.49,1.47-2.14.51-.42,1.16-.83,1.97-1.26.38-.2.64-.37.79-.5.2-.19.37-.46.48-.81.03-.01.06-.02.09-.04ZM278.34,168.1c.98-.18,1.81.04,2.5.69.73.69,1.04,1.6.87,2.73-.17,1.13-.78,2.15-1.81,3.03-.53.45-1.05.8-1.56,1.07-.47.25-.94.49-1.41.72-.33.16-.66.37-.99.61-.29.22-.52.46-.69.73-.08-.04-.16-.07-.24-.11.19-.29.42-.54.69-.74.31-.23.68-.45,1.14-.68.45-.23.9-.46,1.35-.7.54-.28,1.06-.64,1.55-1.06.98-.83,1.54-1.8,1.7-2.87.16-1.08-.13-1.94-.82-2.6-.59-.56-1.33-.82-2.23-.8-.01-.01-.02-.02-.03-.03ZM272.41,172.72c.11-.02.23-.05.34-.07.36.11.99-.04,1.88-.49.45-.23.9-.46,1.34-.69.91-.48,1.54-.79,1.89-.89.36-.11.7-.1,1.03.03,0,.02-.02.04-.03.07-.4,0-.76.05-1.09.17-.33.12-.9.41-1.72.86-1.19.65-2.03,1.01-2.51,1.14-.48.13-.86.09-1.14-.11ZM274.98,173.96c.81.57,1.75.69,2.8.34.01.02.03.03.04.05-1.1.53-2.12.46-3.02-.2.06-.06.11-.12.17-.18ZM274.67,167.24c-.89-.02-1.61.19-2.16.65-.33.28-.54.59-.61.94-.07.35,0,.66.24.93.25.29.74.41,1.47.34.03,0,.05-.01.08-.02,0,.02,0,.05,0,.07-.81.26-1.41.16-1.78-.28-.26-.31-.35-.66-.27-1.05.08-.39.32-.75.72-1.08.38-.31.77-.52,1.17-.62.41-.1.79-.09,1.16.05,0,.02-.02.04-.02.06ZM275.43,164.43s.02.09.03.14c.08.42.18.8.29,1.14.24.82.37,1.28.4,1.38,0,.02,0,.05,0,.07-.07.03-.14.06-.21.09,0-.03-.02-.05-.02-.07-.11-.36-.25-.85-.4-1.46-.1-.38-.2-.76-.3-1.13,0-.02,0-.05-.01-.07.08-.03.15-.05.23-.08Z"/>
  </g>
  <text/>
</svg>